<svg width="150" height="25" viewBox="0 0 150 25" fill="none" xmlns="http://www.w3.org/2000/svg">
<path d="M37.8356 10.0103H42.6796C43.8797 10.0103 44.371 10.4265 44.371 11.4462C44.371 12.321 44.0682 12.8629 42.5596 12.8629H34.5405V14.5437H42.8447C45.3553 14.5437 46.4273 13.6481 46.4273 11.5503C46.4273 9.38926 45.3287 8.33436 43.0686 8.33436H38.1014C36.8127 8.33436 36.2891 7.92378 36.2891 6.91771C36.2891 5.92684 36.8143 5.52264 38.1014 5.52264H46.0182V3.84187H37.8356C35.4249 3.84187 34.2529 4.82792 34.2529 6.85527C34.2529 8.29595 34.8747 10.0103 37.8356 10.0103Z" fill="white"/>
<path d="M59.0968 12.8035H52.9907C50.7097 12.8035 49.6932 11.683 49.6932 9.18258C49.6932 6.69261 50.7105 5.58089 52.9907 5.58089H59.0968V3.83928H52.7668C49.3155 3.83928 47.6377 5.58572 47.6377 9.1786C47.6377 12.7851 49.3155 14.5411 52.7668 14.5411H59.0968V12.8035Z" fill="white"/>
<path d="M74.281 14.5412V8.79693C74.281 5.60103 72.4591 3.84179 69.1519 3.84179H63.0249V0H60.9492V14.542H63.0249V5.57781H68.928C71.0592 5.57781 72.1853 6.69034 72.1853 8.79373V14.538L74.281 14.5412Z" fill="white"/>
<path d="M81.2938 14.542H88.5429V12.8612H81.4807C79.4357 12.8612 78.544 12.2089 78.2758 10.4737H86.162C88.0145 10.4737 89.0318 9.33877 89.0318 7.2778C89.0318 5.05996 87.6875 3.83617 85.2462 3.83617H81.2995C77.5453 3.83617 76.1494 5.28324 76.1494 9.17547C76.1494 12.9829 77.6419 14.538 81.2995 14.538L81.2938 14.542ZM81.4823 5.49376H85.1068C86.4125 5.49376 87.0206 6.05401 87.0206 7.25457C87.0206 8.3751 86.5873 8.87293 85.6151 8.87293H78.2218C78.4272 6.16526 79.1014 5.49454 81.4839 5.49454" fill="white"/>
<path d="M92.7314 8.53506C92.7314 6.50691 93.7164 5.52085 95.7437 5.52085H98.9188V3.84006H95.5198C92.3246 3.84006 90.6348 5.46322 90.6348 8.53266V14.5395H92.7289L92.7314 8.53506Z" fill="white"/>
<path d="M102.419 0.0103664H100.325V10.6778C100.325 14.0041 101.825 14.5412 105.413 14.5412H106.898V12.882H105.553C102.975 12.882 102.418 12.4818 102.418 10.6169V5.51935H107.12V3.83856H102.419V0.0103664Z" fill="white"/>
<path d="M113.889 14.542H121.138V12.8612H114.069C112.024 12.8612 111.131 12.2089 110.865 10.4737H118.75C120.603 10.4737 121.621 9.33877 121.621 7.2778C121.621 5.05996 120.276 3.83617 117.835 3.83617H113.888C110.135 3.83617 108.739 5.28324 108.739 9.17547C108.739 12.9829 110.231 14.538 113.888 14.538L113.889 14.542ZM114.072 5.49376H117.697C119.002 5.49376 119.61 6.05401 119.61 7.25457C119.61 8.3751 119.177 8.87293 118.205 8.87293H110.812C111.017 6.16526 111.69 5.49454 114.074 5.49454" fill="white"/>
<path d="M127.89 14.5411H134.221V12.8035H128.114C125.833 12.8035 124.816 11.683 124.816 9.18258C124.816 6.69261 125.833 5.58089 128.114 5.58089H134.22V3.83928H127.889C124.438 3.83928 122.76 5.58572 122.76 9.1786C122.76 12.7851 124.438 14.5411 127.889 14.5411" fill="white"/>
<path d="M144.274 3.84244H138.147V0.000648499H136.071V14.5427H138.147V5.57846H144.049C146.181 5.57846 147.307 6.69099 147.307 8.79438V14.5387H149.401V8.79438C149.401 5.59848 147.58 3.83924 144.272 3.83924" fill="white"/>
<path d="M37.3544 20.6699H35.6259C35.1298 20.6699 35.0283 20.485 35.0283 20.208C35.0283 19.9311 35.1298 19.7542 35.6259 19.7542H38.412V19.1083H35.5341C34.686 19.1083 34.2559 19.4717 34.2559 20.188C34.2559 20.7035 34.4782 21.3174 35.5341 21.3174H37.2191C37.6806 21.3174 37.7757 21.5039 37.7757 21.7848C37.7757 22.0657 37.6774 22.2466 37.1764 22.2466H34.3574V22.8925H37.2739C38.1695 22.8925 38.5513 22.5724 38.5513 21.82C38.5513 21.046 38.1583 20.6699 37.352 20.6699" fill="#FFA600"/>
<path d="M44.8982 19.1073H39.9463V22.8915H40.7308V19.77H42.9554V22.8915H43.7255V19.77H44.8273C44.976 19.7507 45.1271 19.7655 45.2692 19.8132C45.4112 19.8609 45.5404 19.9403 45.6468 20.0453C45.7532 20.1503 45.8339 20.2781 45.8829 20.419C45.9318 20.5598 45.9476 20.7099 45.9292 20.8578V22.8875H46.7137V20.8578C46.7384 20.6169 46.708 20.3737 46.6248 20.1462C46.5415 19.9186 46.4076 19.7128 46.233 19.5439C46.0584 19.3751 45.8476 19.2477 45.6165 19.1713C45.3853 19.0949 45.1398 19.0713 44.8982 19.1025" fill="#FFA600"/>
<path d="M50.6896 19.1083H48.2363V19.7542H50.357C51.3147 19.7542 51.6699 19.9367 51.781 20.5226H49.21C48.465 20.5226 48.1025 20.8996 48.1025 21.6727C48.1025 22.6812 48.705 22.8933 49.21 22.8933H52.5978V21.0044C52.5978 19.6574 52.0452 19.1091 50.6905 19.1091L50.6896 19.1083ZM51.8181 22.2474H49.359C49.1448 22.2474 48.8597 22.1866 48.8597 21.6663C48.8597 21.2837 48.9998 21.1349 49.359 21.1349H51.8205L51.8181 22.2474Z" fill="#FFA600"/>
<path d="M53.9887 20.7692V22.8902H54.7804V20.7692C54.7566 20.6309 54.7664 20.4889 54.809 20.3551C54.8516 20.2214 54.9257 20.0996 55.0253 20.0001C55.1248 19.9005 55.2468 19.8261 55.3812 19.7829C55.5156 19.7397 55.6584 19.7291 55.7977 19.7519H56.9334V19.106H55.7188C55.4888 19.0731 55.2543 19.093 55.0332 19.164C54.8121 19.2351 54.6103 19.3555 54.4433 19.5161C54.2763 19.6766 54.1485 19.873 54.0697 20.0903C53.9909 20.3075 53.9632 20.5397 53.9887 20.7692Z" fill="#FFA600"/>
<path d="M59.116 17.8414H58.3242V21.5175C58.3242 22.6941 58.88 22.8925 60.1252 22.8925H60.6729V22.2522H60.1735C59.2932 22.2522 59.1144 22.125 59.1144 21.4951V19.7535H60.7502V19.1076H59.1144L59.116 17.8414Z" fill="#FFA600"/>
<path d="M65.6668 17.7709H64.875V18.7833H65.6668V17.7709Z" fill="#FFA600"/>
<path d="M65.6668 19.1074H64.875V22.8916H65.6668V19.1074Z" fill="#FFA600"/>
<path d="M69.9447 19.1073H67.0596V22.8915H67.8441V19.77H69.8658C70.0144 19.7507 70.1656 19.7655 70.3076 19.8132C70.4497 19.8609 70.5789 19.9403 70.6852 20.0453C70.7916 20.1503 70.8724 20.2781 70.9213 20.419C70.9703 20.5598 70.9861 20.7099 70.9676 20.8578V22.8875H71.7594V20.8578C71.7841 20.6169 71.7537 20.3737 71.6705 20.1462C71.5872 19.9186 71.4533 19.7128 71.2787 19.5439C71.1041 19.3751 70.8933 19.2477 70.6622 19.1713C70.431 19.0949 70.1855 19.0713 69.9439 19.1025" fill="#FFA600"/>
<path d="M77.1943 19.1082H75.1863C74.9258 19.0913 74.6647 19.1278 74.419 19.2152C74.1732 19.3027 73.9482 19.4393 73.7577 19.6167C73.5673 19.794 73.4154 20.0083 73.3116 20.2463C73.2078 20.4843 73.1543 20.7409 73.1543 21.0003C73.1543 21.2596 73.2078 21.5162 73.3116 21.7542C73.4154 21.9922 73.5673 22.2065 73.7577 22.3838C73.9482 22.5612 74.1732 22.6978 74.419 22.7853C74.6647 22.8728 74.9258 22.9092 75.1863 22.8924H76.1359C76.3884 22.9298 76.6462 22.9079 76.8886 22.8283C77.131 22.7486 77.3511 22.6136 77.5314 22.4339C77.7116 22.2543 77.8469 22.0351 77.9263 21.794C78.0057 21.5529 78.027 21.2966 77.9885 21.0459V17.7707H77.1967L77.1943 19.1082ZM77.1943 21.0387C77.1943 21.8863 76.881 22.232 76.1142 22.232H75.2508C74.3785 22.232 73.9362 21.8158 73.9362 20.9962C73.9362 20.1767 74.3785 19.7749 75.2508 19.7749H77.1951L77.1943 21.0387Z" fill="#FFA600"/>
<path d="M83.2207 22.2313H81.2691C81.1196 22.2519 80.9673 22.2378 80.8242 22.19C80.6811 22.1423 80.5511 22.0622 80.4444 21.9561C80.3377 21.85 80.2572 21.7208 80.2093 21.5785C80.1613 21.4363 80.1472 21.2849 80.1681 21.1364V19.1074H79.3755V21.1364C79.3508 21.3772 79.3812 21.6205 79.4644 21.848C79.5477 22.0755 79.6816 22.2814 79.8562 22.4502C80.0308 22.619 80.2416 22.7464 80.4727 22.8228C80.7039 22.8993 80.9494 22.9228 81.191 22.8916H84.0101V19.1074H83.2207V22.2313Z" fill="#FFA600"/>
<path d="M88.5013 20.6699H86.7735C86.2766 20.6699 86.1751 20.485 86.1751 20.208C86.1751 19.9311 86.2766 19.7542 86.7735 19.7542H89.5588V19.1083H86.6817C85.8336 19.1083 85.4043 19.4717 85.4043 20.188C85.4043 20.7035 85.6258 21.3174 86.6817 21.3174H88.3667C88.8282 21.3174 88.9233 21.5039 88.9233 21.7848C88.9233 22.0657 88.825 22.2466 88.3248 22.2466H85.5058V22.8925H88.4255C89.3212 22.8925 89.703 22.5724 89.703 21.82C89.703 21.046 89.3107 20.6699 88.5037 20.6699" fill="#FFA600"/>
<path d="M91.8777 17.8414H91.0859V21.5175C91.0859 22.6941 91.6417 22.8925 92.8869 22.8925H93.4346V22.2522H92.9369C92.0557 22.2522 91.8777 22.125 91.8777 21.4951V19.7535H93.5136V19.1076H91.8777V17.8414Z" fill="#FFA600"/>
<path d="M94.8433 20.7692V22.8902H95.6351V20.7692C95.6113 20.6309 95.621 20.4889 95.6636 20.3551C95.7062 20.2214 95.7804 20.0996 95.8799 20.0001C95.9795 19.9005 96.1015 19.8261 96.2359 19.7829C96.3702 19.7397 96.513 19.7291 96.6524 19.7519H97.7881V19.106H96.5743C96.3443 19.0731 96.1097 19.093 95.8887 19.164C95.6676 19.2351 95.4658 19.3555 95.2988 19.5161C95.1318 19.6766 95.004 19.873 94.9252 20.0903C94.8464 20.3075 94.8187 20.5397 94.8441 20.7692" fill="#FFA600"/>
<path d="M101.17 21.816L99.3766 19.1075H98.4834L100.745 22.4963L99.6352 24.2283H100.511L103.764 19.1059H102.89L101.17 21.816Z" fill="#FFA600"/>
<path d="M110.44 20.6699H108.713C108.216 20.6699 108.114 20.485 108.114 20.208C108.114 19.9311 108.216 19.7542 108.713 19.7542H111.498V19.1083H108.619C107.771 19.1083 107.342 19.4717 107.342 20.188C107.342 20.7035 107.563 21.3174 108.619 21.3174H110.304C110.766 21.3174 110.861 21.5039 110.861 21.7848C110.861 22.0657 110.763 22.2466 110.262 22.2466H107.443V22.8925H110.364C111.259 22.8925 111.641 22.5724 111.641 21.82C111.641 21.046 111.249 20.6699 110.441 20.6699" fill="#FFA600"/>
<path d="M115.566 19.1075H114.794C114.533 19.0907 114.272 19.1271 114.026 19.2146C113.781 19.3021 113.556 19.4387 113.365 19.6161C113.175 19.7934 113.023 20.0077 112.919 20.2457C112.815 20.4837 112.762 20.7403 112.762 20.9996C112.762 21.259 112.815 21.5156 112.919 21.7536C113.023 21.9916 113.175 22.2059 113.365 22.3832C113.556 22.5606 113.781 22.6972 114.026 22.7847C114.272 22.8721 114.533 22.9086 114.794 22.8917H115.566C115.827 22.9086 116.088 22.8721 116.334 22.7847C116.579 22.6972 116.804 22.5606 116.995 22.3832C117.185 22.2059 117.337 21.9916 117.441 21.7536C117.545 21.5156 117.598 21.259 117.598 20.9996C117.598 20.7403 117.545 20.4837 117.441 20.2457C117.337 20.0077 117.185 19.7934 116.995 19.6161C116.804 19.4387 116.579 19.3021 116.334 19.2146C116.088 19.1271 115.827 19.0907 115.566 19.1075ZM115.502 22.229H114.836C114.665 22.2547 114.49 22.2409 114.325 22.1886C114.16 22.1363 114.01 22.0469 113.885 21.9274C113.76 21.8079 113.665 21.6614 113.607 21.4994C113.548 21.3374 113.528 21.1642 113.548 20.9932C113.548 20.1776 113.982 19.7647 114.836 19.7647H115.502C116.374 19.7647 116.816 20.1784 116.816 20.9932C116.816 21.808 116.375 22.229 115.502 22.229Z" fill="#FFA600"/>
<path d="M119.663 17.7709H118.871V22.8925H119.663V17.7709Z" fill="#FFA600"/>
<path d="M124.898 22.2313H122.947C122.797 22.2519 122.645 22.2377 122.502 22.19C122.359 22.1423 122.229 22.0622 122.122 21.9561C122.015 21.85 121.935 21.7208 121.887 21.5786C121.839 21.4364 121.824 21.285 121.845 21.1364V19.1074H121.053V21.1364C121.029 21.3772 121.059 21.6205 121.142 21.848C121.225 22.0755 121.359 22.2814 121.534 22.4502C121.709 22.619 121.919 22.7464 122.15 22.8228C122.382 22.8993 122.627 22.9228 122.869 22.8916H125.688V19.1074H124.896L124.898 22.2313Z" fill="#FFA600"/>
<path d="M127.874 17.8414H127.082V21.5175C127.082 22.6941 127.638 22.8925 128.884 22.8925H129.432V22.2522H128.934C128.052 22.2522 127.875 22.125 127.875 21.4951V19.7535H129.51V19.1076H127.875L127.874 17.8414Z" fill="#FFA600"/>
<path d="M131.602 17.7709H130.811V18.7833H131.602V17.7709Z" fill="#FFA600"/>
<path d="M131.602 19.1074H130.811V22.8916H131.602V19.1074Z" fill="#FFA600"/>
<path d="M135.659 19.1075H134.887C134.626 19.0907 134.365 19.1271 134.119 19.2146C133.873 19.3021 133.648 19.4387 133.458 19.6161C133.267 19.7934 133.116 20.0077 133.012 20.2457C132.908 20.4837 132.854 20.7403 132.854 20.9996C132.854 21.259 132.908 21.5156 133.012 21.7536C133.116 21.9916 133.267 22.2059 133.458 22.3832C133.648 22.5606 133.873 22.6972 134.119 22.7847C134.365 22.8721 134.626 22.9086 134.887 22.8917H135.659C135.919 22.9086 136.181 22.8721 136.426 22.7847C136.672 22.6972 136.897 22.5606 137.088 22.3832C137.278 22.2059 137.43 21.9916 137.534 21.7536C137.637 21.5156 137.691 21.259 137.691 20.9996C137.691 20.7403 137.637 20.4837 137.534 20.2457C137.43 20.0077 137.278 19.7934 137.088 19.6161C136.897 19.4387 136.672 19.3021 136.426 19.2146C136.181 19.1271 135.919 19.0907 135.659 19.1075ZM135.595 22.229H134.929C134.758 22.2547 134.583 22.2409 134.418 22.1886C134.253 22.1363 134.102 22.0469 133.978 21.9274C133.853 21.8079 133.758 21.6614 133.699 21.4994C133.641 21.3374 133.621 21.1642 133.64 20.9932C133.64 20.1776 134.075 19.7647 134.929 19.7647H135.595C136.468 19.7647 136.91 20.1784 136.91 20.9932C136.91 21.808 136.468 22.229 135.595 22.229Z" fill="#FFA600"/>
<path d="M141.9 19.1074H139.016V22.8916H139.8V19.7702H141.822C141.97 19.7508 142.122 19.7656 142.264 19.8133C142.406 19.861 142.535 19.9404 142.641 20.0454C142.748 20.1504 142.828 20.2782 142.877 20.4191C142.926 20.5599 142.942 20.71 142.924 20.8579V22.8876H143.716V20.8579C143.741 20.617 143.711 20.3736 143.627 20.146C143.544 19.9184 143.41 19.7125 143.235 19.5437C143.061 19.3749 142.85 19.2475 142.619 19.1711C142.387 19.0947 142.142 19.0713 141.9 19.1026" fill="#FFA600"/>
<path d="M148.204 20.6699H146.476C145.979 20.6699 145.878 20.485 145.878 20.208C145.878 19.9311 145.979 19.7542 146.476 19.7542H149.261V19.1083H146.386C145.538 19.1083 145.108 19.4717 145.108 20.188C145.108 20.7035 145.33 21.3174 146.386 21.3174H148.071C148.532 21.3174 148.627 21.5039 148.627 21.7848C148.627 22.0657 148.529 22.2466 148.029 22.2466H145.21V22.8925H148.13C149.025 22.8925 149.407 22.5724 149.407 21.82C149.407 21.046 149.014 20.6699 148.207 20.6699" fill="#FFA600"/>
<path d="M17.8609 0.0109463L3.34027 3.87756C2.18127 4.19869 1.19665 4.96137 0.600334 5.99984C0.00402033 7.03831 -0.155792 8.26866 0.155638 9.42354C0.467068 10.5784 1.22458 11.5645 2.26354 12.1676C3.30251 12.7706 4.53897 12.9418 5.70427 12.6441L20.2249 8.77827L17.8609 0.0109463Z" fill="white"/>
<path d="M21.1521 11.5792L6.59766 15.4546L8.96246 24.2259L23.5169 20.3505C24.1042 20.2033 24.6563 19.9415 25.1408 19.5803C25.6254 19.2192 26.0329 18.7659 26.3396 18.2468C26.6463 17.7278 26.846 17.1533 26.9272 16.5568C27.0085 15.9604 26.9696 15.3538 26.8127 14.7724C26.6559 14.191 26.3844 13.6464 26.0138 13.1703C25.6433 12.6941 25.1812 12.296 24.6544 11.9989C24.1276 11.7018 23.5465 11.5118 22.9452 11.4399C22.3438 11.368 21.734 11.4156 21.1513 11.58" fill="#FFA600"/>
</svg>
