<svg width="160" height="29" viewBox="0 0 160 29" fill="none" xmlns="http://www.w3.org/2000/svg">
<path d="M10.464 21H0.936V19.536H10.128C11.928 19.536 12.528 18.888 12.528 17.592C12.528 16.344 11.952 15.624 10.272 15.624H4.56C1.872 15.624 0.6 14.376 0.6 12.144C0.6 9.912 1.872 8.832 4.56 8.832H13.944V10.296H4.872C3.216 10.296 2.472 10.872 2.472 12.216C2.472 13.56 3.216 14.16 4.872 14.16H10.728C13.512 14.16 14.424 15.552 14.424 17.712C14.424 19.896 13.488 21 10.464 21ZM23.1131 21H21.6251C17.1851 21 15.8891 20.208 15.8891 16.68V4.512H17.8331V8.832H23.3771V10.296H17.8331V16.608C17.8331 19.056 18.7211 19.56 21.7931 19.56H23.1131V21ZM38.9565 21H27.8445C25.3005 21 24.4605 19.392 24.4605 17.208C24.4605 15.024 25.3005 13.656 27.8445 13.656H36.9885C36.6525 10.944 35.0925 10.296 31.7325 10.296H24.9165V8.832H32.8605C37.1325 8.832 38.9565 10.416 38.9565 14.928V21ZM37.0605 19.536V15H28.3485C26.7885 15 26.2845 15.816 26.2845 17.184C26.2845 18.624 26.8845 19.536 28.3485 19.536H37.0605ZM48.0272 21H46.5392C42.0992 21 40.8032 20.208 40.8032 16.68V4.512H42.7472V8.832H48.2912V10.296H42.7472V16.608C42.7472 19.056 43.6352 19.56 46.7072 19.56H48.0272V21ZM64.7552 21H55.5632C52.0592 21 49.7792 19.296 49.7792 15.384V8.832H51.7232V15.384C51.7232 18.12 53.2112 19.488 55.8272 19.488H62.8112V8.832H64.7552V21ZM76.2765 21H66.7485V19.536H75.9405C77.7405 19.536 78.3405 18.888 78.3405 17.592C78.3405 16.344 77.7645 15.624 76.0845 15.624H70.3725C67.6845 15.624 66.4125 14.376 66.4125 12.144C66.4125 9.912 67.6845 8.832 70.3725 8.832H79.7565V10.296H70.6845C69.0285 10.296 68.2845 10.872 68.2845 12.216C68.2845 13.56 69.0285 14.16 70.6845 14.16H76.5405C79.3245 14.16 80.2365 15.552 80.2365 17.712C80.2365 19.896 79.3005 21 76.2765 21Z" fill="white"/>
<path d="M90.7976 21H87.5816C83.7416 21 81.6776 19.32 81.6776 15.072V4.272H83.6216V8.832H90.7976C95.0456 8.832 97.3256 10.992 97.3256 14.904C97.3256 18.84 95.0456 21 90.7976 21ZM87.6536 19.488H90.5816C93.9416 19.488 95.4056 17.736 95.4056 14.904C95.4056 12.12 93.9416 10.368 90.5816 10.368H83.6216V15.048C83.6216 18.24 84.9176 19.488 87.6536 19.488ZM108.021 21H105.405C101.157 21 98.9014 18.84 98.9014 14.904C98.9014 10.992 101.157 8.832 105.405 8.832H108.021C112.245 8.832 114.549 10.992 114.549 14.904C114.549 18.84 112.245 21 108.021 21ZM105.549 19.488H107.805C111.165 19.488 112.629 17.736 112.629 14.904C112.629 12.096 111.165 10.344 107.805 10.344H105.549C102.285 10.344 100.797 12.096 100.797 14.904C100.797 17.736 102.285 19.488 105.549 19.488ZM130.48 21H119.368C116.824 21 115.984 19.392 115.984 17.208C115.984 15.024 116.824 13.656 119.368 13.656H128.512C128.176 10.944 126.616 10.296 123.256 10.296H116.44V8.832H124.384C128.656 8.832 130.48 10.416 130.48 14.928V21ZM128.584 19.536V15H119.872C118.312 15 117.808 15.816 117.808 17.184C117.808 18.624 118.408 19.536 119.872 19.536H128.584ZM134.271 21H132.327V14.136C132.327 10.416 134.415 8.832 137.823 8.832H141.567V10.296H138.087C135.615 10.296 134.271 11.496 134.271 14.136V21ZM152.474 21H149.258C145.01 21 142.729 18.84 142.729 14.904C142.729 10.992 145.01 8.832 149.258 8.832H156.434V4.272H158.378V15.072C158.378 19.32 156.314 21 152.474 21ZM156.434 15.048V10.368H149.474C146.114 10.368 144.65 12.12 144.65 14.904C144.65 17.736 146.114 19.488 149.474 19.488H152.402C155.138 19.488 156.434 18.24 156.434 15.048Z" fill="#FFA600"/>
</svg>
